# xmcd
#
# Track frame offsets: 
#        150
#        5323
#        21929
#        30541
#        52814
#        62433
#        72488
#        90956
#        101220
#        121091
#        134122
#        148230
#        166099
#
# Disc length: 2454 seconds
#
# Revision: 0
# Processed by: cddbd v1.5.2PL0 Copyright (c) Steve Scherf et al.
# Submitted via: ExactAudioCopyFreeDBPlugin 1.0
#
DISCID=a909940d
DTITLE=Guadalupe Plata - Guadalupe Plata
DYEAR=2015
DGENRE=Blues
TTITLE0=Lamentos
TTITLE1=Rezando
TTITLE2=Rata
TTITLE3=Oh my bey!
TTITLE4=Demasiado
TTITLE5=Funeral de John Fahey
TTITLE6=Esclavo
TTITLE7=El blues es mi amigo
TTITLE8=Voy caminando
TTITLE9=Milana
TTITLE10=Jesus esta llorando
TTITLE11=No me ama
TTITLE12=Santo entierro
EXTD=
EXTT0=
EXTT1=
EXTT2=
EXTT3=
EXTT4=
EXTT5=
EXTT6=
EXTT7=
EXTT8=
EXTT9=
EXTT10=
EXTT11=
EXTT12=
PLAYORDER=
